<?xml version="1.0" encoding="utf-8"?>
<!-- Generator: Adobe Illustrator 19.0.0, SVG Export Plug-In . SVG Version: 6.00 Build 0)  -->
<svg version="1.1" id="Layer_1" xmlns="http://www.w3.org/2000/svg" xmlns:xlink="http://www.w3.org/1999/xlink" x="0px" y="0px"
	 viewBox="7 -7 32 32" style="enable-background:new 7 -7 32 32;" xml:space="preserve">
<style type="text/css">
	.st0{fill:#CCB659;}
</style>
<g>
	<path class="st0" d="M37.1,17.7L37.1,17.7L28.4,9l8.7-8.7l0,0c0.1-0.1,0.2-0.2,0.2-0.3c0.1-0.3,0.1-0.7-0.2-0.9L33-5.1
		c-0.3-0.3-0.6-0.3-0.9-0.2c-0.1,0-0.2,0.1-0.3,0.2l0,0L23,3.6l-8.7-8.7l0,0c-0.1-0.1-0.2-0.2-0.3-0.2c-0.3-0.1-0.7-0.1-0.9,0.2
		L8.9-1C8.6-0.7,8.6-0.4,8.7,0c0,0.1,0.1,0.2,0.2,0.3l0,0L17.6,9l-8.7,8.7l0,0c-0.1,0.1-0.2,0.2-0.2,0.3c-0.1,0.3-0.1,0.7,0.2,0.9
		l4.1,4.1c0.3,0.3,0.6,0.3,0.9,0.2c0.1,0,0.2-0.1,0.3-0.2l0,0l8.7-8.7l8.7,8.7l0,0c0.1,0.1,0.2,0.2,0.3,0.2c0.3,0.1,0.7,0.1,0.9-0.2
		l4.1-4.1c0.3-0.3,0.3-0.6,0.2-0.9C37.3,17.9,37.2,17.8,37.1,17.7z"/>
	<path d="M37.1,17.8c-3-2.8-6-5.7-8.9-8.5L27.9,9l0.2-0.2c1.9-2,3.9-4,5.8-5.9l1.5-1.5l0.7-0.7l0.4-0.4c0.1-0.1,0.3-0.3,0.3-0.3
		c0.1-0.2,0.1-0.4,0-0.5c0,0-0.2-0.2-0.3-0.3l-0.4-0.4l-1.5-1.5l-1.5-1.5l-0.4-0.4c-0.1-0.1-0.3-0.3-0.3-0.3c-0.2-0.1-0.4-0.1-0.5,0
		L29.1-2l-6,5.8L23,3.9l-0.1-0.1L17-2.2l-1.5-1.5c-0.5-0.5-1-1-1.5-1.4c-0.2-0.2-0.6-0.2-0.8,0c-0.2,0.2-0.5,0.5-0.7,0.7l-1.5,1.5
		L9.6-1.4L9.3-1C9.2-0.9,9-0.8,9-0.7C8.8-0.5,8.9-0.2,9,0c0.4,0.4,1,1,1.5,1.4L12,2.9l6,5.8L18.2,9l-0.3,0.3l-5.9,5.9l-2.9,2.9
		c-0.1,0.1-0.1,0.3,0,0.4c0,0,0,0,0.1,0.1l0.2,0.2l0.4,0.4l1.5,1.5l1.5,1.5l0.4,0.4c0.1,0.1,0.3,0.3,0.3,0.3c0.1,0.1,0.3,0.1,0.4,0
		l2.9-2.9c2-2,4-3.9,5.9-5.8l0.3-0.3l0.3,0.3c2.4,2.5,4.9,5,7.3,7.5l0.9,0.9c0.1,0.1,0.3,0.3,0.4,0.4c0.1,0.1,0.3,0.2,0.4,0.1
		c0.2,0,0.3-0.1,0.4-0.2l0.5-0.5l1-0.9l1.9-1.8l0.9-0.9C37.4,18.6,37.4,18.1,37.1,17.8z M37.1,17.7c0.3,0.3,0.4,0.9,0.1,1.3l-0.9,1
		l-1.8,1.9l-0.9,1l-0.5,0.5c-0.2,0.2-0.4,0.3-0.7,0.4c-0.3,0-0.6-0.1-0.8-0.2c-0.2-0.2-0.3-0.3-0.5-0.5L30.2,22
		c-2.5-2.4-5-4.9-7.5-7.3l0.6,0c-1.9,2-3.9,4-5.8,5.9L16,22.1l-0.7,0.7l-0.4,0.4c-0.1,0.1-0.2,0.2-0.4,0.4c-0.4,0.3-1.1,0.3-1.5,0
		c-0.3-0.2-0.3-0.3-0.5-0.4l-0.4-0.4l-1.5-1.5L9.1,20l-0.4-0.4l-0.2-0.2c-0.1-0.1-0.2-0.2-0.2-0.3C8,18.6,8,18,8.4,17.5
		c0.2-0.3,0.3-0.3,0.4-0.4l0.4-0.4L9.9,16l1.5-1.5l5.9-5.9l0,0.6l-5.8-6L10,1.9c-0.5-0.5-0.9-1-1.5-1.5C8.3-0.1,8.3-0.6,8.5-1
		c0.1-0.2,0.3-0.3,0.4-0.4l0.4-0.4l1.5-1.5l1.5-1.5c0.3-0.2,0.4-0.5,0.8-0.7c0.4-0.2,0.8-0.2,1.2,0c0.6,0.5,1,1,1.5,1.5l1.5,1.5
		l5.9,5.9l-0.3,0l5.8-6L30.1-4l0.7-0.7l0.4-0.4c0.1-0.1,0.2-0.2,0.4-0.4c0.4-0.3,1-0.3,1.4,0c0.3,0.2,0.3,0.3,0.5,0.4l0.4,0.4
		l1.5,1.5l1.5,1.5l0.4,0.4c0.1,0.1,0.3,0.2,0.4,0.5c0.3,0.4,0.3,1,0,1.5c-0.2,0.2-0.3,0.3-0.4,0.4l-0.4,0.4l-0.7,0.7l-1.5,1.5
		c-2,1.9-3.9,3.9-5.9,5.8l0-0.5C31.5,11.7,34.3,14.7,37.1,17.7z"/>
</g>
</svg>
