<?xml version="1.0" encoding="utf-8"?>
<!-- Generator: Adobe Illustrator 19.0.0, SVG Export Plug-In . SVG Version: 6.00 Build 0)  -->
<svg version="1.1" id="Layer_1" xmlns="http://www.w3.org/2000/svg" xmlns:xlink="http://www.w3.org/1999/xlink" x="0px" y="0px"
	 viewBox="0 0 199.8 151.4" style="enable-background:new 0 0 199.8 151.4;" xml:space="preserve">
<style type="text/css">
	.st0{fill:#4A4A49;}
	.st1{fill:#CCB659;}
</style>
<g>
	<g>
		<g>
			<path class="st0" d="M24.1,143.4c0.4,0.4,0.8,0.6,1.2,0.6v0.7c-1.5-0.1-3.3-0.1-5.5-0.1c-2.5,0-4.3,0-5.5,0.1v-0.7
				c0.9,0,1.6-0.1,2-0.3c0.4-0.2,0.6-0.5,0.6-1c0-0.4-0.1-0.9-0.4-1.7l-2.2-6H6.4l-1,2.5c-0.7,1.7-1,3-1,4c0,0.9,0.3,1.5,0.8,1.9
				c0.5,0.4,1.3,0.5,2.4,0.6v0.7c-1.6-0.1-3.1-0.1-4.5-0.1c-1.1,0-2,0-2.8,0.1v-0.7c1.2-0.2,2.2-1.5,3.1-3.8l8.3-21.2
				c0.4,0,0.8,0.1,1.3,0.1c0.5,0,0.9,0,1.3-0.1l8.8,22.7C23.4,142.4,23.7,143,24.1,143.4z M10.4,124.4l-3.8,9.8H14L10.4,124.4z"/>
			<path class="st0" d="M46.5,142.5c-0.2,0-0.4,0.1-0.7,0.4c-0.9,0.7-1.8,1.3-2.8,1.7c-1,0.4-2.1,0.6-3.5,0.6
				c-2.3,0-4.3-0.4-6.1-1.3c-1.8-0.9-3.1-2.2-4.1-3.9c-1-1.7-1.5-3.7-1.5-6.1c0-2.3,0.5-4.3,1.5-6.1c1-1.8,2.4-3.2,4.2-4.2
				c1.8-1,3.7-1.5,5.9-1.5c1,0,1.8,0.1,2.6,0.3c0.7,0.2,1.4,0.5,1.9,0.8c0.5,0.3,1.1,0.7,1.7,1.3c0.3,0.2,0.5,0.4,0.7,0.4
				c0.5,0,0.8-0.7,0.9-2.2H48c-0.1,1.5-0.1,4-0.1,7.6H47c-0.2-1.3-0.5-2.3-0.7-2.9c-0.2-0.6-0.6-1.2-1.1-1.8
				c-0.7-0.8-1.5-1.4-2.3-1.9c-0.9-0.4-1.7-0.7-2.7-0.7c-1.3,0-2.5,0.4-3.5,1.3c-1,0.9-1.8,2.1-2.3,3.7c-0.5,1.6-0.8,3.5-0.8,5.7
				c0,2.2,0.3,4.1,0.9,5.7c0.6,1.6,1.4,2.8,2.5,3.6c1,0.8,2.2,1.2,3.5,1.2c1,0,1.9-0.2,2.8-0.7c0.9-0.4,1.7-1.1,2.3-1.9
				c0.5-0.6,0.8-1.3,1-1.9c0.2-0.7,0.4-1.7,0.6-3.1h0.8c0,3.8,0,6.5,0.1,8h-0.8C47.3,143.2,47,142.5,46.5,142.5z"/>
			<path class="st0" d="M53.2,127.5c0-1.5-0.1-3.2-0.3-4.9c2.1,0.1,5.7,0.1,10.7,0.1c5.1,0,8.7,0,10.9-0.1c-0.2,1.9-0.3,3.6-0.3,4.9
				c0,1.3,0,2.3,0.1,3.2h-0.8c-0.3-1.8-0.8-3.3-1.2-4.3c-0.5-1.1-1.1-1.8-1.8-2.3c-0.7-0.5-1.7-0.7-2.8-0.7h-1.1v17
				c0,1,0.1,1.7,0.3,2.2s0.5,0.8,1,1c0.5,0.2,1.3,0.3,2.4,0.3v0.7c-1.3-0.1-3.5-0.1-6.5-0.1c-3.1,0-5.2,0-6.3,0.1v-0.7
				c1.1,0,1.9-0.1,2.4-0.3c0.5-0.2,0.8-0.5,1-1c0.2-0.5,0.3-1.2,0.3-2.2v-17h-1.1c-1.2,0-2.1,0.2-2.8,0.7c-0.7,0.5-1.3,1.2-1.8,2.3
				c-0.5,1.1-0.9,2.5-1.2,4.3h-0.8C53.2,130,53.2,128.9,53.2,127.5z"/>
			<path class="st0" d="M86.8,140.8c0,0.9,0.1,1.6,0.2,2c0.1,0.4,0.4,0.7,0.8,0.8c0.4,0.2,1,0.3,1.9,0.3v0.7
				c-1.4-0.1-3.4-0.1-6.1-0.1c-2.3,0-3.9,0-5.1,0.1v-0.7c0.8,0,1.4-0.1,1.8-0.3c0.4-0.2,0.6-0.4,0.7-0.8c0.1-0.4,0.2-1.1,0.2-2
				v-14.4c0-0.9-0.1-1.6-0.2-2c-0.1-0.4-0.4-0.7-0.7-0.9c-0.4-0.2-0.9-0.2-1.8-0.3v-0.7c1.1,0.1,2.7,0.1,4.9,0.1c1,0,2.2,0,3.5,0
				c1.3,0,2.2,0,2.6,0c3.2,0,5.5,0.5,7,1.6c1.5,1.1,2.3,2.5,2.3,4.5c0,1.2-0.3,2.4-1,3.4c-0.6,1.1-1.7,1.9-3.3,2.6
				c-1.6,0.7-3.6,1-6.2,1h-1.6V140.8z M92,133.4c0.7-1.1,1.1-2.5,1.1-4.3c0-2-0.3-3.4-0.9-4.3c-0.6-0.9-1.6-1.4-3.1-1.4
				c-0.6,0-1.1,0.1-1.4,0.3c-0.3,0.2-0.5,0.5-0.6,0.9c-0.1,0.4-0.2,1.1-0.2,1.9v8.6H88C89.9,135,91.3,134.5,92,133.4z"/>
			<path class="st0" d="M122.6,143.9v0.7c-1.1-0.1-2.7-0.1-4.7-0.1c-2.6,0-4.5,0-5.7,0.1v-0.7c0.8,0,1.4-0.2,1.8-0.4
				c0.4-0.2,0.6-0.6,0.6-1c0-0.4-0.2-1-0.5-1.6l-1.8-4.1h-7.6l-0.4,1c-0.7,1.6-1,2.8-1,3.7c0,0.8,0.3,1.4,0.8,1.8
				c0.5,0.4,1.3,0.6,2.4,0.7v0.7c-1.4-0.1-2.8-0.1-4.2-0.1c-1.3,0-2.3,0-2.9,0.1v-0.7c0.6-0.1,1.1-0.5,1.6-1.1
				c0.5-0.6,1-1.5,1.6-2.8l7.7-17.5c0.3,0,0.6,0.1,0.8,0.1c0.3,0,0.6,0,0.8-0.1l8.6,19.1C121,143.1,121.8,143.9,122.6,143.9z
				 M108.4,128.1l-3.5,8h7L108.4,128.1z"/>
			<path class="st0" d="M146.6,143c-0.1-0.3-0.3-0.5-0.6-0.5c-0.2,0-0.4,0.1-0.7,0.3c-0.7,0.5-1.4,0.9-2,1.2
				c-0.6,0.3-1.3,0.6-2.1,0.8c-0.8,0.2-1.7,0.3-2.7,0.3c-2.6,0-4.8-0.5-6.7-1.6c-1.9-1-3.4-2.6-4.5-4.5c-1.1-2-1.6-4.3-1.6-7.1
				c0-2.7,0.5-5,1.6-7.1c1.1-2.1,2.6-3.7,4.6-4.8c2-1.1,4.2-1.7,6.7-1.7c1.4,0,2.7,0.2,3.7,0.6c1,0.4,2,1,3,1.7
				c0.3,0.2,0.5,0.3,0.7,0.3c0.5,0,0.8-0.7,0.9-2.2h0.8c-0.1,1.6-0.1,4.6-0.1,8.8h-0.8c-0.2-1.2-0.3-2.2-0.5-3
				c-0.2-0.8-0.5-1.4-0.8-2c-0.3-0.6-0.8-1.1-1.4-1.6c-0.6-0.6-1.3-1-2.1-1.3c-0.8-0.3-1.6-0.5-2.5-0.5c-1.7,0-3,0.6-4.1,1.7
				c-1.1,1.1-1.9,2.7-2.4,4.5c-0.5,1.9-0.7,4-0.7,6.2c0,2.3,0.3,4.3,0.8,6.2c0.5,1.9,1.3,3.4,2.4,4.5c1.1,1.1,2.5,1.7,4.1,1.7
				c0.8,0,1.7-0.2,2.5-0.5c0.8-0.3,1.5-0.7,2-1.3c0.6-0.5,1.1-1,1.4-1.6c0.3-0.6,0.6-1.3,0.8-2.2c0.2-0.8,0.3-1.9,0.5-3.2h0.8
				c0,4.4,0,7.4,0.1,9.1h-0.8C146.8,143.9,146.7,143.4,146.6,143z"/>
			<path class="st0" d="M174.6,143.9v0.7c-1.1-0.1-2.7-0.1-4.7-0.1c-2.6,0-4.5,0-5.7,0.1v-0.7c0.8,0,1.4-0.2,1.8-0.4
				c0.4-0.2,0.6-0.6,0.6-1c0-0.4-0.2-1-0.5-1.6l-1.8-4.1h-7.6l-0.4,1c-0.7,1.6-1,2.8-1,3.7c0,0.8,0.3,1.4,0.8,1.8
				c0.5,0.4,1.3,0.6,2.4,0.7v0.7c-1.4-0.1-2.8-0.1-4.2-0.1c-1.3,0-2.3,0-2.9,0.1v-0.7c0.6-0.1,1.1-0.5,1.6-1.1
				c0.5-0.6,1-1.5,1.6-2.8l7.7-17.5c0.3,0,0.6,0.1,0.8,0.1c0.3,0,0.6,0,0.8-0.1l8.6,19.1C173,143.1,173.8,143.9,174.6,143.9z
				 M160.4,128.1l-3.5,8h7L160.4,128.1z"/>
			<path class="st0" d="M199.3,148.6c0,1,0,1.8,0.1,2.4h-0.8c-0.2-1.6-0.6-2.8-1.2-3.7c-0.5-0.9-1.2-1.6-2-2c-0.8-0.4-1.8-0.6-3-0.6
				h-8.5c-1.2,0-2.2,0.2-3,0.6c-0.8,0.4-1.5,1.1-2,2c-0.5,0.9-0.9,2.2-1.2,3.7h-0.8c0.1-0.7,0.1-1.4,0.1-2.4c0-1.2-0.1-2.8-0.3-4.7
				h1c1.7,0,3-0.8,4-2.5c0.9-1.7,1.5-3.7,1.9-5.9c0.3-2.3,0.6-5.3,0.9-9c0-0.4,0-0.7,0-0.8c0-0.6-0.1-1.1-0.3-1.4
				c-0.2-0.3-0.5-0.5-0.9-0.7c-0.4-0.1-1-0.2-1.8-0.2v-0.7c0.6,0,1.8,0.1,3.5,0.1c0.3,0,0.6,0,1.1,0c0.5,0,0.9,0,1.3,0
				c1,0,2,0,3.1,0.1c1.1,0,1.9,0.1,2.4,0.1c2.4,0,4.2,0,5.4-0.1v0.7c-0.8,0-1.4,0.1-1.8,0.3c-0.4,0.2-0.6,0.4-0.8,0.9
				c-0.1,0.4-0.2,1.1-0.2,2v14.4c0,0.9,0.1,1.6,0.2,2c0.1,0.4,0.4,0.7,0.8,0.9c0.4,0.2,1,0.2,1.7,0.2h1.1
				C199.3,145.7,199.3,147.3,199.3,148.6z M189.9,124.4c-0.1-0.4-0.3-0.7-0.6-0.9c-0.3-0.1-0.8-0.2-1.4-0.2h-0.5
				c-0.6,0-1.1,0.1-1.3,0.2c-0.3,0.2-0.4,0.4-0.5,0.8c-0.1,0.4-0.2,1.1-0.3,2.1c-0.1,0.8-0.2,2.7-0.5,5.6c-0.2,2.9-0.7,5.4-1.4,7.5
				c-0.7,2.1-1.7,3.5-3.1,4.3h6.9c0.8,0,1.4-0.1,1.8-0.2c0.4-0.2,0.7-0.4,0.8-0.9c0.2-0.4,0.2-1.1,0.2-2v-14.4
				C190.1,125.5,190.1,124.8,189.9,124.4z"/>
		</g>
	</g>
	<g>
		<path class="st1" d="M123.6,56.1c2,2.4,4.9,3.5,8.8,3.4c6.5-0.2,13.9-4.1,18.7-7.6c1.7-1.2,3.1-2.5,4.4-3.9
			c0.2-0.2,0.4-0.4,0.6-0.5c0.4-0.4,0.9-0.5,1.5-0.6c1.5,0,3.1,1.2,3.8,1.8l0.2,0.2l0.5,0l0.7-0.5l0.3-0.2l0.4-0.2l-0.2-0.6
			c-0.6-1.5-1.4-2.9-2.3-4.1c-4.1-5.5-9.7-6.3-13-6.3c3.8-6.7,4.3-13.5,1.5-19.1l-1.2-2.4l-0.2-0.4l-0.8,3.3c-0.3,1-2,7.2-5.5,9.8
			c-0.9,0.7-1.9,1-2.8,1.1c-3.4,0.2-9.1,2.1-13.8,5.5c-5.1,3.8-7.2,8.6-5.8,13.5l-0.3,0.4l0,0c-1.1,1.7-1.2,3-1,4
			C101.2,61.4,89.1,63,83.4,63.2c-1.5,0.1-28.8-0.4-28.8-0.4L69.5,24l13.6,37c4.1,1,18-1.7,27.8-6.9c0-0.6,0-1.2,0-1.8
			c0-9,1-15.9,3-23.4c2-7.5,5.1-13.5,9.4-18c4.3-4.6,9.7-6.8,16.3-6.8c3.4,0,6.7,0.6,9.9,1.8c3.2,1.2,6,2.9,8.4,5.2
			c2.4,1.9,4.3,4,5.7,6.3c1.4,2.3,2.4,5,3.2,8c0.7,3,1.4,7,2,11.8h3.3c0-16.7,0.2-28.4,0.6-34.9h-3.3c-0.5,5.7-1.7,8.6-3.7,8.6
			c-0.8,0-1.7-0.4-2.8-1.3c-3.8-3-7.8-5.3-11.9-6.9c-4.1-1.6-8.9-2.5-14.7-2.5c-9.9,0-18.7,2.3-26.5,6.8c-6.9,4-12.4,9.5-16.6,16.4
			L84.9,2.1c-1.5,0.1-3.1,0.2-5,0.2c-1.8,0-3.4-0.1-5-0.2L42,86.4c-3.5,9.3-7.6,14.3-12.4,15.1v2.9c2.9-0.3,6.6-0.4,11-0.4
			c5.4,0,11.4,0.1,17.9,0.4v-2.9c-4.3-0.1-7.5-0.9-9.6-2.3c-2.1-1.4-3.2-3.9-3.2-7.5c0-3.9,1.3-9.3,3.9-16l3.8-9.9
			c0,0,28.5-0.1,30-0.1c5.9-0.2,18.4-1.9,35.7-10.8C120.1,55.6,121.6,56,123.6,56.1z M149.7,49.9c-4.2,3.2-9.4,5.6-13.8,6.6
			c-1.3,0.3-2.5,0.5-3.6,0.5c-3.2,0.1-5.6-0.8-7-2.8c-0.1-0.2-0.3-0.4-0.4-0.7c0.1,0,0.2,0,0.3,0c0.6,0.4,3.8,2.1,8.7,2
			c3-0.1,6-0.9,9.1-2.3c2.7-1.3,5-2.5,7-3.7c0.2-0.1,0.4-0.2,0.6-0.3C150.2,49.5,149.9,49.7,149.7,49.9z M146.4,48.9
			c-1.4,0.8-2.8,1.5-4.5,2.3c-2.8,1.3-5.5,2-8.2,2.1c-1.5,0-2.8-0.1-3.9-0.3c1.3-0.4,2.6-1,4-1.8C135.7,51,141.1,50.4,146.4,48.9z
			 M138.3,48.2c0.4-0.3,0.7-0.6,1.1-0.9c0.8-0.2,5.6-1.6,10.6-1.9c-0.5,0.1-0.9,0.3-1.4,0.4c-0.6,0.2-1.2,0.4-1.9,0.6
			C143.8,47.3,140.7,47.8,138.3,48.2z M153.9,42.9c-0.9-0.1-1.9-0.1-2.9,0c-2.9,0.1-5.8,0.6-8.1,1.1c0.7-0.8,1.4-1.6,2-2.4
			C145.9,41.5,149.7,41.1,153.9,42.9z M136.1,46.9c-3.3,2.5-6.7,4-9.3,4.3c2.2-0.9,5.3-2.4,8.9-5.1c2-1.5,4-3.2,5.9-5.1
			c2-2,3.5-3.9,4.7-5.9C143.9,39.8,140.1,43.9,136.1,46.9z M146,30.4c-1.1,2.8-3,5.9-6,8.9c-1.9,1.9-3.9,3.5-5.7,4.9
			c-2.1,1.6-4.1,2.8-5.7,3.6c0.5-0.4,1.1-0.8,1.6-1.3c0.9-0.7,1.9-1.4,2.9-2c0.3-0.2,0.7-0.5,1-0.7C138.3,40.6,143,35.7,146,30.4z
			 M140.4,34.3c-2.5,3.1-5.3,5.8-7.8,7.6c-0.3,0.2-0.6,0.5-0.9,0.7c-1,0.7-2,1.4-2.9,2.1c-0.9,0.6-2,1.5-3.1,2.4
			c0.9-1,2.1-2.1,3.7-3.3C132.1,41.7,136.5,38.2,140.4,34.3z M137.4,33.9c-3.2,3.1-6.8,5.9-9.4,7.9c-2.2,1.7-3.7,3.2-4.7,4.4
			c1.1-3.8,4.4-6.7,6.5-8.3c1.8-1.4,3.9-2.6,5.6-3.2C136.1,34.5,136.7,34.3,137.4,33.9z M126.5,36.8c2.1-1.6,4.5-2.8,6.9-3.7
			c-1.6,0.8-3.4,1.8-5,3c-2.3,1.7-5.9,4.9-7.2,9.2C121.2,42.3,122.9,39.4,126.5,36.8z"/>
		<path class="st1" d="M168.7,68.1c-0.6,5.3-1.2,9.5-1.9,12.7c-0.7,3.2-1.7,6.1-3.1,8.5c-1.4,2.5-3.3,4.6-5.7,6.5
			c-2.2,2.3-4.9,4.1-8.1,5.3c-3.2,1.2-6.4,1.8-9.8,1.8c-6.6,0-12-2.2-16.4-6.7c-1.8-1.8-3.3-3.8-4.7-6.1l-5.7-14.8
			c-1.2-5-1.9-9.5-2.1-15.2c-8,4.9-20.2,7.2-25.5,7.7l7.9,21.6c1.2,3.1,1.8,5.4,1.8,6.8c0,1.9-0.8,3.2-2.4,3.9
			c-1.6,0.8-4.2,1.2-7.8,1.3v2.9c4.7-0.3,12-0.4,21.9-0.4c4.3,0,8.1,0,11.7,0.1c5.3,1.6,11.1,2.4,17.4,2.4c3.9,0,7.4-0.4,10.5-1.2
			c3.1-0.8,5.9-1.9,8.3-3.2c2.4-1.3,5-3,7.8-4.9c1.2-0.8,2.2-1.2,3-1.2c1,0,1.8,0.7,2.4,2c0.5,1.3,0.9,3.5,1.2,6.5h3.3
			c-0.4-6.8-0.6-18.9-0.6-36.3H168.7z"/>
	</g>
</g>
</svg>
