<?xml version="1.0" encoding="utf-8"?>
<!-- Generator: Adobe Illustrator 19.0.0, SVG Export Plug-In . SVG Version: 6.00 Build 0)  -->
<svg version="1.1" id="Layer_1" xmlns="http://www.w3.org/2000/svg" xmlns:xlink="http://www.w3.org/1999/xlink" x="0px" y="0px"
	 viewBox="0 0 18 18" style="enable-background:new 0 0 18 18;" xml:space="preserve">
<style type="text/css">
	.st0{fill:#CCB658;}
</style>
<g>
	<g>
		<path class="st0" d="M2.9,6.6c0.2,0.1,0.8,0.5,1.7,1.2c1,0.7,1.7,1.2,2.2,1.5c0.1,0,0.2,0.1,0.4,0.3c0.2,0.1,0.3,0.2,0.5,0.3
			C7.8,10,8,10.1,8.1,10.2c0.2,0.1,0.3,0.2,0.5,0.2c0.2,0.1,0.3,0.1,0.4,0.1h0h0c0.1,0,0.3,0,0.4-0.1c0.2-0.1,0.3-0.1,0.5-0.2
			c0.2-0.1,0.3-0.2,0.4-0.3c0.1-0.1,0.3-0.2,0.5-0.3c0.2-0.1,0.3-0.2,0.4-0.3c0.5-0.4,1.8-1.3,4-2.8c0.4-0.3,0.8-0.6,1-1
			c0.3-0.4,0.4-0.8,0.4-1.3c0-0.4-0.1-0.7-0.4-1c-0.3-0.3-0.6-0.4-1-0.4H2.8C2.4,2.9,2,3,1.8,3.3C1.6,3.6,1.5,4,1.5,4.4
			c0,0.4,0.2,0.7,0.5,1.2C2.2,6,2.6,6.3,2.9,6.6z"/>
		<path class="st0" d="M15.8,7.5c-1.9,1.3-3.3,2.2-4.2,2.9c-0.3,0.2-0.6,0.4-0.8,0.6c-0.2,0.1-0.5,0.3-0.8,0.4
			c-0.3,0.1-0.6,0.2-0.9,0.2h0h0c-0.3,0-0.6-0.1-0.9-0.2c-0.3-0.1-0.6-0.3-0.8-0.4c-0.2-0.1-0.5-0.3-0.8-0.6
			C5.8,9.8,4.4,8.9,2.3,7.5C2,7.2,1.7,7,1.5,6.7v6.7c0,0.4,0.1,0.7,0.4,1c0.3,0.3,0.6,0.4,1,0.4h12.5c0.4,0,0.7-0.1,1-0.4
			c0.3-0.3,0.4-0.6,0.4-1V6.7C16.4,7,16.1,7.2,15.8,7.5z"/>
	</g>
</g>
</svg>
