<?xml version="1.0" encoding="utf-8"?>
<!-- Generator: Adobe Illustrator 19.0.0, SVG Export Plug-In . SVG Version: 6.00 Build 0)  -->
<svg version="1.1" id="Layer_1" xmlns="http://www.w3.org/2000/svg" xmlns:xlink="http://www.w3.org/1999/xlink" x="0px" y="0px"
	 viewBox="7 -7 32 32" style="enable-background:new 7 -7 32 32;" xml:space="preserve">
<style type="text/css">
	.st0{fill:#CCB659;}
</style>
<g>
	<path class="st0" d="M9-2h28v4H9V-2z M9,7h28v4H9V7z M9,16h28v4H9V16z"/>
	<g>
		<path d="M9-2l28-0.3l0.4,0l0,0.4l0,4l0,0.4l-0.4,0c-2.3,0.1-4.7,0.1-7,0.1c-2.3,0-4.7,0-7,0c-2.3,0-4.7-0.1-7-0.1
			c-2.3,0-4.7-0.1-7-0.2l-0.2,0l0-0.2L9-2z M9.1-1.9L9.2,2L9,1.8c2.3-0.1,4.7-0.2,7-0.2c2.3,0,4.7-0.1,7-0.1c2.3,0,4.7,0,7,0
			c2.3,0,4.7,0,7,0.1L36.6,2l0-4L37-1.6L9.1-1.9z"/>
		<path d="M9,7l28-0.3l0.4,0l0,0.4l0,4l0,0.4l-0.4,0c-2.3,0.1-4.7,0.1-7,0.1c-2.3,0-4.7,0-7,0c-2.3,0-4.7-0.1-7-0.1
			c-2.3,0-4.7-0.1-7-0.2l-0.2,0l0-0.2L9,7z M9.1,7.1L9.2,11L9,10.8c2.3-0.1,4.7-0.2,7-0.2c2.3,0,4.7-0.1,7-0.1c2.3,0,4.7,0,7,0
			c2.3,0,4.7,0,7,0.1L36.6,11l0-4L37,7.4L9.1,7.1z"/>
		<path d="M9,16l28-0.3l0.4,0l0,0.4l0,4l0,0.4l-0.4,0c-2.3,0.1-4.7,0.1-7,0.1c-2.3,0-4.7,0-7,0c-2.3,0-4.7-0.1-7-0.1
			c-2.3,0-4.7-0.1-7-0.2l-0.2,0l0-0.2L9,16z M9.1,16.1L9.2,20L9,19.8c2.3-0.1,4.7-0.2,7-0.2c2.3,0,4.7-0.1,7-0.1c2.3,0,4.7,0,7,0
			c2.3,0,4.7,0,7,0.1L36.6,20l0-4l0.4,0.4L9.1,16.1z"/>
	</g>
</g>
</svg>
