<?xml version="1.0" encoding="utf-8"?>
<!-- Generator: Adobe Illustrator 19.0.0, SVG Export Plug-In . SVG Version: 6.00 Build 0)  -->
<svg version="1.1" id="Layer_1" xmlns="http://www.w3.org/2000/svg" xmlns:xlink="http://www.w3.org/1999/xlink" x="0px" y="0px"
	 viewBox="0 0 18 18" style="enable-background:new 0 0 18 18;" xml:space="preserve">
<style type="text/css">
	.st0{fill:#CCB658;}
</style>
<g id="XMLID_2_">
	<path id="XMLID_3_" class="st0" d="M17.9,14.8c-0.1-0.4-0.3-0.8-0.7-1l-4.4-2.5c-0.5-0.3-1.2-0.2-1.7,0.2l-0.9,0.9
		c-0.2,0.2-0.6,0.3-0.8,0c-0.7-0.5-1.4-1.2-2-1.8c-0.6-0.6-1.2-1.3-1.8-2c-0.2-0.3-0.2-0.6,0-0.8l0.9-0.9C7,6.4,7.1,5.7,6.8,5.2
		L4.3,0.8C4,0.4,3.7,0.2,3.3,0.1C2.8,0,2.4,0.2,2.1,0.5L0.8,1.8c-0.9,0.9-0.9,2.6,0,4.7c0.9,2,2.4,4.3,4.5,6.3c2,2,4.3,3.6,6.3,4.5
		c1,0.4,2,0.7,2.8,0.7c0.8,0,1.5-0.2,1.9-0.7l1.3-1.3C17.8,15.6,18,15.2,17.9,14.8L17.9,14.8z M17,14.2 M12.6,11.7 M1.3,6.3"/>
</g>
</svg>
